/* XPM */
static char * etf_xpm[] = {
"32 32 5 1",
" 	c #000000",
".	c #800000",
"+	c #FF0000",
"@	c #FF5468",
"#	c #F80000",
"                                ",
"                                ",
"                                ",
"                                ",
"................................",
" ++++++++++++++++++++++++++++++ ",
"  @@@@@@@@@@@@@@@@@@@@@@@@@@@@  ",
"               @+               ",
"   ..........# @+ ...........   ",
"    +++++++++# @+ @+++++++++    ",
"     @@@@@@@+# @+ @+@@@@@@@     ",
"            @# @+ @+            ",
"            @# @+ @+            ",
"            +# @+ @+            ",
"      ......+# @+ @+......      ",
"       @++++++ @+ @++++++       ",
"        @@@@@+ @+ @+@@@@        ",
"            @+ @+ @+            ",
"            @+ @+ @+            ",
"            @+ @+ @+            ",
"          @.++ @+ @+            ",
"           @++ @+ @+            ",
"            @+@+++++            ",
"            @+ @+ @+            ",
"            @@ @+ @@            ",
"            @  @+ @             ",
"               @+               ",
"               @+               ",
"               @                ",
"                                ",
"                                ",
"                                "};
