<?xml version="1.0" encoding="UTF-8" standalone="no"?>
<svg
   id="Layer_1"
   width="400"
   height="135.31"
   version="1.2"
   viewBox="0 0 400.00002 135.31"
   sodipodi:docname="etflogo.svg"
   inkscape:version="1.4.4 (dcaf3e7, 2026-05-05)"
   xmlns:inkscape="http://www.inkscape.org/namespaces/inkscape"
   xmlns:sodipodi="http://sodipodi.sourceforge.net/DTD/sodipodi-0.dtd"
   xmlns:xlink="http://www.w3.org/1999/xlink"
   xmlns="http://www.w3.org/2000/svg"
   xmlns:svg="http://www.w3.org/2000/svg">
  <sodipodi:namedview
     id="namedview4"
     pagecolor="#ffffff"
     bordercolor="#000000"
     borderopacity="0.25"
     inkscape:showpageshadow="2"
     inkscape:pageopacity="0.0"
     inkscape:pagecheckerboard="0"
     inkscape:deskcolor="#d1d1d1"
     inkscape:zoom="13.413643"
     inkscape:cx="96.43167"
     inkscape:cy="61.914575"
     inkscape:window-width="3840"
     inkscape:window-height="2054"
     inkscape:window-x="-11"
     inkscape:window-y="-11"
     inkscape:window-maximized="1"
     inkscape:current-layer="Layer_1" />
  <!-- Generator: Adobe Illustrator 30.6.0, SVG Export Plug-In . SVG Version: 2.1.4 Build 109)  -->
  <defs
     id="defs2">
    <linearGradient
       id="linearGradient5"
       inkscape:collect="always">
      <stop
         style="stop-color:#801518;stop-opacity:1;"
         offset="0"
         id="stop5" />
      <stop
         style="stop-color:#ec2226;stop-opacity:1;"
         offset="1"
         id="stop6" />
    </linearGradient>
    <linearGradient
       id="linear-gradient"
       x1="76.150002"
       y1="128.08"
       x2="76.150002"
       y2="3"
       gradientUnits="userSpaceOnUse">
      <stop
         offset="0"
         stop-color="#7f1518"
         id="stop1" />
      <stop
         offset="1"
         stop-color="#ec2426"
         id="stop2" />
    </linearGradient>
    <linearGradient
       id="linear-gradient1"
       x1="113.12"
       y1="116.96"
       x2="113.12"
       y2="26.610001"
       xlink:href="#linear-gradient" />
    <linearGradient
       id="linear-gradient2"
       x1="37.5"
       y1="116.96"
       x2="37.5"
       y2="26.610001"
       xlink:href="#linear-gradient" />
    <linearGradient
       inkscape:collect="always"
       xlink:href="#linearGradient5"
       id="linearGradient6"
       x1="274.76422"
       y1="189.86194"
       x2="274.76422"
       y2="-54.551933"
       gradientUnits="userSpaceOnUse" />
    <linearGradient
       id="linear-gradient-0"
       x1="93.730003"
       y1="144.78"
       x2="93.730003"
       y2="4"
       gradientUnits="userSpaceOnUse">
      <stop
         offset="0"
         stop-color="#801518"
         id="stop1-9" />
      <stop
         offset="1"
         stop-color="#ec2226"
         id="stop2-4" />
    </linearGradient>
  </defs>
  <text
     xml:space="preserve"
     style="font-weight:bold;font-size:37.3333px;font-family:Calibri;-inkscape-font-specification:'Calibri, Bold';letter-spacing:0px;writing-mode:lr-tb;direction:ltr;fill:url(#linearGradient6);stroke:#231f20;stroke-width:1.5;stroke-dasharray:none;stroke-linejoin:bevel;stroke-opacity:1"
     x="150.48698"
     y="56.489643"
     id="text4"><tspan
       sodipodi:role="line"
       id="tspan4"
       x="150.48698"
       y="56.489643"
       style="font-size:37.3333px;stroke-width:1.5;stroke-dasharray:none;stroke-linejoin:bevel;fill:url(#linearGradient6);stroke:#231f20;stroke-opacity:1">Enemy Territory</tspan><tspan
       sodipodi:role="line"
       x="150.48698"
       y="103.15627"
       id="tspan5"
       style="font-size:37.3333px;stroke-width:1.5;stroke-dasharray:none;stroke-linejoin:bevel;fill:url(#linearGradient6);stroke:#231f20;stroke-opacity:1">Fortress</tspan></text>
  <path
     d="M 158.27444,0.0084425 H 0 l 2.9127158,5.0571501 7.3366662,12.7568504 0.683855,1.190414 1.688532,2.938044 7.226911,12.571113 0.970906,1.696973 h 34.868162 v 3.748538 H 22.13664 l 2.912716,5.05715 7.226911,12.571113 0.970906,1.696973 h 22.440575 v 5.631251 h -20.89557 l 2.912716,5.05715 7.226912,12.571111 0.970906,1.696972 h 9.785036 v 40.153265 l 6.306663,-10.95857 8.3329,-14.479151 v 35.923501 l 6.306662,-10.96701 8.3329,-14.48759 v 14.96882 l 6.306663,-10.96701 10.882584,-18.928427 0.44745,-0.785172 V 59.284319 h 21.59632 l 0.97091,-1.696974 7.22691,-12.571112 2.91271,-5.05715 h -32.70685 v -3.748539 h 34.86817 l 0.9709,-1.696973 7.22692,-12.571113 2.91271,-5.05715 L 155.37861,5.0571501 158.29133,0 v 0 z"
     id="path2"
     style="stroke-width:0.844265" />
  <polygon
     class="cls-1"
     points="87.29,144.78 100.18,122.36 100.18,109.96 104.62,102.23 104.62,132.36 117.51,109.94 117.51,66.22 144.78,66.22 153.34,51.33 117.51,51.33 117.51,38.89 160.49,38.89 169.06,24 104.62,24 104.62,85.78 100.18,93.51 100.18,19.11 171.87,19.11 180.55,4 6.91,4 15.6,19.11 87.29,19.11 87.29,85.78 82.85,93.51 82.85,24 18.41,24 26.97,38.89 69.96,38.89 69.96,51.33 33.13,51.33 41.69,66.22 69.96,66.22 69.96,80.89 48.12,80.89 56.68,95.78 69.96,95.78 69.96,132.36 87.29,102.23 "
     id="polygon2"
     style="fill:url(#linear-gradient-0)"
     transform="matrix(0.84426544,0,0,0.84426544,0,0.0084425)" />
</svg>
